<svg xmlns="http://www.w3.org/2000/svg" width="50" height="50" viewBox="0 0 50 50">
  <g id="Group_6810" data-name="Group 6810" transform="translate(-17400 -18832)">
    <g id="Group_1465" data-name="Group 1465" transform="translate(17400 18832)">
      <path id="Path_3917" data-name="Path 3917" d="M7969.514,4389.664a25,25,0,1,1,25,25A25,25,0,0,1,7969.514,4389.664Z" transform="translate(-7969.514 -4364.664)" fill="#ed1c24"/>
      <g id="Group_1464" data-name="Group 1464" transform="translate(17.05 14.058)">
        <path id="Path_3918" data-name="Path 3918" d="M8022.095,4397.692h-3.909v-1.481a.713.713,0,0,0-.713-.714h-5.228a.713.713,0,0,0-.714.714v1.481h-3.909a.713.713,0,0,0-.713.714v2.194a.713.713,0,0,0,.713.714h14.473a.714.714,0,0,0,.714-.714v-2.194A.714.714,0,0,0,8022.095,4397.692Zm-9.136-.769h3.8v.769h-3.8Z" transform="translate(-8006.909 -4395.497)" fill="#fff"/>
        <path id="Path_3919" data-name="Path 3919" d="M8009.674,4425.344a.715.715,0,0,0,.713.684H8021.7a.715.715,0,0,0,.713-.684l.593-13.957h-13.919Zm8.524-11.055a.714.714,0,1,1,1.428,0v8.835a.714.714,0,0,1-1.428,0Zm-2.871,0a.714.714,0,1,1,1.428,0v8.835a.714.714,0,0,1-1.428,0Zm-2.871,0a.714.714,0,1,1,1.428,0v8.835a.714.714,0,0,1-1.428,0Z" transform="translate(-8008.091 -4404.143)" fill="#fff"/>
      </g>
    </g>
  </g>
</svg>
